<svg version="1.2" xmlns="http://www.w3.org/2000/svg" viewBox="0 0 227 140" width="227" height="140"><style>.a{fill:#362d31}.b{fill:#8eb533}</style><path fill-rule="evenodd" class="a" d="m236.2 114.1q-0.8 0-1.5-0.3-0.8-0.4-1.3-0.9-0.6-0.6-0.9-1.3-0.3-0.8-0.3-1.6v-82.7q0-0.8 0.3-1.6 0.3-0.7 0.8-1.3 0.6-0.6 1.4-0.9 0.7-0.3 1.5-0.3h22.5c19.9 0 30.4 8.3 30.4 27.6 0 17.8-7.2 28.9-28.9 28.9h-12.2v30.3q0 0.8-0.3 1.6-0.3 0.7-0.9 1.3-0.6 0.5-1.3 0.8-0.8 0.4-1.6 0.4zm11.8-47.6h11.3c9.1 0 13.3-3.4 13.3-14.7 0-11.7-4-15.2-13.2-15.2h-11.4z"/><path class="a" d="m314.6 115.5c-11.3 0-14.2-5.6-14.2-18.6v-74.3q0-0.8 0.4-1.6 0.3-0.7 0.8-1.3 0.6-0.6 1.4-0.9 0.7-0.3 1.5-0.3h6.8q0.8 0 1.6 0.3 0.7 0.3 1.3 0.9 0.6 0.6 0.9 1.3 0.3 0.8 0.3 1.6v76.1c0 2.9 0.9 4.3 2.8 4.9 2.6 0.8 4.3 1.5 4.7 4.2l0.4 2.7q0.1 0.8-0.1 1.5-0.1 0.7-0.6 1.4-0.4 0.6-1.1 1-0.6 0.4-1.4 0.5-0.6 0.1-1.3 0.2-0.7 0.2-1.4 0.2-0.7 0.1-1.4 0.2-0.7 0-1.4 0z"/><path fill-rule="evenodd" class="a" d="m377.1 136.9c-29.3 0-46.6-16.5-46.6-49.2 0-32.7 20-57.5 53.2-57.5 29.4 0 45.7 17.8 45.7 46.4 0 27-10.5 38.9-26 38.9-11.2 0-15.8-5.4-17.4-13.1-4.7 5.8-10.8 11.1-18.7 11.1-7.5 0-13-5.5-13-18.3q0-1.8 0.1-3.6 0.1-1.8 0.4-3.6 0.2-1.7 0.5-3.5 0.3-1.8 0.7-3.5c4.1-19.7 11.9-26.8 23.8-26.8 6.1 0 10.3 3.6 12.6 5.8l0.1-0.5q0.2-0.9 0.6-1.6 0.4-0.8 1.1-1.3 0.7-0.6 1.5-0.8 0.8-0.3 1.7-0.3h5.2q0.8 0 1.4 0.3 0.7 0.3 1.2 0.9 0.5 0.6 0.6 1.3 0.2 0.7 0.1 1.5l-7.4 34.5q-0.1 0.5-0.2 1.1-0.1 0.6-0.2 1.1 0 0.6-0.1 1.1 0 0.6 0 1.2c0 4.7 2.4 6.7 5.5 6.7 8 0 13.3-7.8 13.3-28.5 0-24.2-9.2-36-33.6-36-26.6 0-39.7 19.4-39.7 47 0 28.1 10.9 38.6 33.5 38.6q1.9 0 3.7-0.1 1.9-0.1 3.7-0.4 1.9-0.2 3.7-0.6 1.8-0.4 3.6-0.9 0.8-0.3 1.6-0.2 0.8 0.1 1.5 0.4 0.7 0.4 1.2 1 0.6 0.6 0.8 1.4l0.7 2.1q0.2 0.7 0.2 1.6 0 0.8-0.4 1.5-0.3 0.7-0.9 1.2-0.6 0.6-1.4 0.8-2.2 0.7-4.4 1.2-2.2 0.6-4.4 0.9-2.3 0.4-4.5 0.6-2.3 0.1-4.6 0.1zm-4.7-34.1c4.5 0 8.7-3.8 12.3-7.5l5.8-27.3c-2-1.7-4.6-3.8-8.4-3.8-6.6 0-9 3.9-12.1 18.4q-0.4 1.6-0.7 3.3-0.4 1.7-0.6 3.5-0.3 1.7-0.4 3.4-0.2 1.7-0.3 3.4c0.1 4.9 1.6 6.6 4.4 6.6z"/><path class="a" d="m445.4 114.1q-0.8 0-1.5-0.3-0.8-0.4-1.4-0.9-0.5-0.6-0.8-1.3-0.4-0.8-0.4-1.6v-58.3q0-0.8 0.4-1.5 0.3-0.8 0.8-1.4 0.6-0.5 1.4-0.8 0.7-0.4 1.5-0.4h3.8q0.9 0 1.7 0.3 0.8 0.3 1.5 0.9 0.7 0.5 1.1 1.2 0.5 0.7 0.7 1.6l0.7 3.3c5.4-5.3 11.4-9 19.5-9 10.5 0 16.7 4.9 16.7 17.4v46.7q0 0.8-0.3 1.6-0.3 0.7-0.9 1.3-0.6 0.5-1.3 0.8-0.8 0.4-1.6 0.4h-6.8q-0.8 0-1.6-0.4-0.7-0.3-1.3-0.8-0.5-0.6-0.9-1.3-0.3-0.8-0.3-1.6v-42.9c0-7-2.2-8.7-7.1-8.7-4.8 0-8.9 2.5-12.7 5.9v45.7q0 0.8-0.3 1.6-0.3 0.7-0.9 1.3-0.6 0.5-1.3 0.8-0.8 0.4-1.6 0.4z"/><path class="a" d="m504.5 59.2q-0.8 0-1.5-0.3-0.8-0.3-1.4-0.9-0.5-0.6-0.8-1.3-0.4-0.8-0.4-1.6v-3.4q0-0.8 0.4-1.5 0.3-0.8 0.8-1.4 0.6-0.5 1.4-0.8 0.7-0.4 1.5-0.4h3.2v-12.6q0-0.9 0.2-1.7 0.3-0.8 0.9-1.4 0.5-0.7 1.2-1.1 0.8-0.5 1.6-0.7l7-1.3q0.7-0.1 1.4 0.1 0.8 0.2 1.3 0.7 0.6 0.4 0.9 1.1 0.3 0.7 0.3 1.4v15.5h9q0.8 0 1.5 0.4 0.8 0.3 1.3 0.8 0.6 0.6 0.9 1.4 0.3 0.7 0.3 1.5v3.4q0 0.8-0.3 1.6-0.3 0.7-0.9 1.3-0.5 0.6-1.3 0.9-0.7 0.3-1.5 0.3h-9v38.5c0 5 1.7 6.5 5.1 6.5q0.5 0 0.9 0 0.5-0.1 0.9-0.1 0.4-0.1 0.9-0.2 0.4-0.1 0.9-0.2 0.6-0.2 1.2-0.1 0.6 0.1 1.2 0.4 0.5 0.3 0.9 0.8 0.3 0.5 0.5 1.1l0.8 3.5q0.1 0.8 0 1.6-0.1 0.8-0.5 1.6-0.4 0.7-1.1 1.2-0.6 0.5-1.4 0.8-1 0.3-1.9 0.5-1 0.2-2 0.4-0.9 0.1-1.9 0.2-1 0.1-2 0.1c-10.2 0-17.3-3.8-17.3-15.4v-41.2z"/><path class="b" d="m556 114.1q-0.5 0-1.1-0.3-0.5-0.2-0.9-0.6-0.4-0.4-0.6-0.9-0.2-0.5-0.2-1.1v-84.4q0-0.6 0.2-1.1 0.2-0.6 0.6-1 0.4-0.4 1-0.6 0.5-0.2 1-0.2h3.6q0.7 0 1.3 0.2 0.6 0.2 1.2 0.5 0.5 0.4 1 0.8 0.4 0.5 0.7 1.1l28.4 58.2q1.1 2.3 2.2 4.7 1.1 2.4 2.1 4.8 1 2.5 1.9 4.9 0.9 2.5 1.8 5h0.2q-0.3-2.7-0.5-5.5-0.2-2.7-0.3-5.5-0.1-2.7-0.2-5.4 0-2.8 0-5.5v-55.4q0-0.6 0.2-1.1 0.3-0.6 0.7-1 0.4-0.4 0.9-0.6 0.5-0.2 1.1-0.2h2q0.6 0 1.1 0.2 0.5 0.2 0.9 0.6 0.4 0.4 0.7 1 0.2 0.5 0.2 1.1v84.4q0 0.6-0.2 1.1-0.3 0.5-0.7 0.9-0.4 0.4-0.9 0.6-0.5 0.3-1.1 0.3h-3.4q-0.7 0-1.3-0.2-0.6-0.2-1.2-0.6-0.5-0.3-1-0.8-0.4-0.5-0.7-1l-27.3-55.6q-1.4-2.6-2.6-5.3-1.3-2.7-2.4-5.5-1.2-2.7-2.2-5.5-1-2.8-1.9-5.6h-0.3q0.3 3 0.5 6.1 0.2 3 0.3 6.1 0.1 3.1 0.1 6.1 0.1 3.1 0 6.1v52.8q0 0.6-0.2 1.1-0.2 0.5-0.6 0.9-0.4 0.4-1 0.7-0.5 0.2-1.1 0.2z"/><path fill-rule="evenodd" class="b" d="m632.3 83.9c0.3 19 5.4 24.8 17.2 24.8q1.8 0 3.5-0.2 1.8-0.2 3.5-0.7 1.6-0.5 3.2-1.3 1.6-0.8 3.1-1.8 0.5-0.3 1-0.4 0.6-0.2 1.2-0.1 0.6 0.1 1.1 0.4 0.5 0.3 0.9 0.8l0.8 0.9q0.3 0.5 0.5 1 0.1 0.6 0 1.1-0.1 0.6-0.4 1.1-0.3 0.4-0.8 0.8c-4.7 3.2-10.1 5.1-17.6 5.1-15 0-25.4-8.4-25.4-32.6 0-23.9 10.1-32.8 24-32.8 14.5 0 22.4 9.2 22.4 30.6v1.7q0 0.3-0.1 0.6-0.1 0.3-0.3 0.5-0.2 0.2-0.5 0.3-0.2 0.2-0.5 0.2zm0.1-6.2h29.9c0-16-4.7-21.3-14.4-21.3-8.8 0-14.6 4.9-15.5 21.3z"/><path class="b" d="m687.6 57.8h-4.7q-0.6-0.1-1.1-0.3-0.6-0.2-1-0.6-0.4-0.4-0.6-0.9-0.2-0.6-0.2-1.2v-0.6q0-0.6 0.2-1.1 0.2-0.5 0.6-0.9 0.4-0.4 1-0.7 0.5-0.2 1.1-0.2h4.7v-13.6q0-0.6 0.2-1.2 0.2-0.6 0.6-1.1 0.3-0.5 0.8-0.8 0.6-0.3 1.1-0.5l2.3-0.5q0.5-0.1 1 0 0.5 0.2 0.9 0.5 0.4 0.3 0.6 0.8 0.2 0.4 0.2 0.9v15.5h10.3q0.5 0 1.1 0.2 0.5 0.3 0.9 0.7 0.4 0.4 0.6 0.9 0.3 0.5 0.3 1.1v0.7q0 0.5-0.3 1.1-0.2 0.5-0.6 0.9-0.4 0.4-0.9 0.6-0.6 0.2-1.1 0.3h-10.3v45.4c0 3.8 1.7 5.8 5.3 5.8q0.6 0 1.2-0.1 0.6 0 1.2-0.1 0.6-0.1 1.2-0.3 0.5-0.1 1.1-0.3 0.6-0.2 1.1-0.1 0.6 0 1.1 0.3 0.5 0.2 0.9 0.6 0.4 0.5 0.6 1 0.2 0.6 0.2 1.2 0 0.6-0.2 1.2-0.2 0.6-0.7 1-0.4 0.4-1 0.7-0.9 0.3-1.7 0.5-0.9 0.3-1.8 0.5-0.9 0.1-1.8 0.2-0.9 0.1-1.8 0.1c-7.1 0-12.6-3.3-12.6-11.8z"/><path class="b" d="m205 88.7c-42.9-23.3-88.9-2.8-97.4 34.3 0 0 75.4-10.9 97.4-34.3z"/><path class="b" d="m133 2.5c-13.4 5.4-27.1 23.3-34.3 46.9-6.2 20.3-6 39.8-0.6 52.4 2.4-8 4.8-14.8 8.3-21.4 1.5-2.8 3.7-1.4 3.7 0.8-0.1 1.9-0.5 5.6-2.2 13.6-0.6 2.7-1.3 6.2-2.1 10.2 11.7-7.2 23.2-23.6 29.5-44.4 7.2-23.6 5.8-46.2-2.3-58"/><path class="b" d="m91.7 46.7c0.5-1.7 1-3.3 1.6-4.9-15.1-17.8-33.6-28.4-47.4-28.3-3.1 14 4 35.5 19.4 54.7q2.5 3 5.1 5.9 2.7 2.8 5.6 5.5 2.8 2.6 5.9 5.1 3.1 2.4 6.3 4.6c-2.2-11.9-1.3-27 3.5-42.6z"/><path class="b" d="m3 88.7c42.9-23.3 88.9-2.8 97.4 34.3 0 0-75.4-10.9-97.4-34.3z"/></svg>